<svg width="777" height="95" viewBox="0 0 777 95" fill="none" xmlns="http://www.w3.org/2000/svg">
<g opacity="0.5">
<mask id="path-1-inside-1_0_46" fill="white">
<path fill-rule="evenodd" clip-rule="evenodd" d="M-2.02656e-06 94.0401C-2.02656e-06 94.0401 192.477 -114.126 393.059 94.0401C393.059 94.0401 569.327 -115.395 777 94.0401"/>
</mask>
<path fill-rule="evenodd" clip-rule="evenodd" d="M-2.02656e-06 94.0401C-2.02656e-06 94.0401 192.477 -114.126 393.059 94.0401C393.059 94.0401 569.327 -115.395 777 94.0401" fill="black" fill-opacity="0.01"/>
<path d="M393.059 94.0401L392.339 94.734L393.109 95.5334L393.824 94.684L393.059 94.0401ZM-2.02656e-06 94.0401C0.734232 94.719 0.734628 94.7186 0.735757 94.7174C0.737111 94.7159 0.738971 94.7139 0.741676 94.711C0.747084 94.7052 0.755416 94.6962 0.766661 94.6841C0.78915 94.66 0.82329 94.6235 0.868992 94.5748C0.960397 94.4776 1.09805 94.3319 1.28125 94.1402C1.64765 93.7567 2.19621 93.1892 2.92132 92.4566C4.37155 90.9913 6.52781 88.8659 9.3451 86.2326C14.9799 80.9658 23.2575 73.6689 33.8176 65.5599C54.9422 49.3385 85.178 29.885 121.646 16.9201C158.109 3.9571 200.783 -2.51327 246.816 7.19851C292.844 16.9091 342.311 42.8148 392.339 94.734L393.779 93.3462C343.515 41.1824 293.704 15.0465 247.229 5.24159C200.76 -4.5622 157.706 1.97781 120.976 15.0356C84.2524 28.0914 53.8326 47.669 32.5996 63.9736C21.9809 72.1276 13.6542 79.4674 7.9794 84.7715C5.14189 87.4237 2.96702 89.5673 1.49983 91.0497C0.766223 91.7909 0.2095 92.3668 -0.164711 92.7584C-0.351818 92.9542 -0.4933 93.104 -0.588454 93.2052C-0.636032 93.2558 -0.672027 93.2944 -0.696353 93.3205C-0.708517 93.3335 -0.717762 93.3435 -0.72408 93.3503C-0.727238 93.3537 -0.729778 93.3564 -0.731358 93.3581C-0.733164 93.3601 -0.734236 93.3612 -2.02656e-06 94.0401ZM393.059 94.0401C393.824 94.684 393.824 94.6836 393.825 94.6824C393.826 94.681 393.828 94.679 393.83 94.6761C393.835 94.6703 393.843 94.6613 393.853 94.6492C393.874 94.625 393.905 94.5884 393.947 94.5395C394.03 94.4419 394.156 94.2955 394.324 94.1028C394.66 93.7174 395.164 93.1468 395.83 92.4101C397.164 90.9368 399.149 88.7993 401.752 86.1509C406.957 80.8538 414.628 73.5147 424.483 65.3586C444.197 49.043 472.624 29.4777 507.502 16.4385C542.372 3.40225 583.679 -3.10756 629.187 6.66227C674.694 16.4319 724.483 42.4976 776.29 94.7442L777.71 93.336C725.681 40.8649 675.558 14.5718 629.607 4.70682C583.657 -5.15793 541.958 1.42198 506.802 14.5651C471.653 27.7054 443.034 47.4093 423.208 63.8179C413.293 72.024 405.571 79.4108 400.325 84.7491C397.702 87.4184 395.698 89.576 394.347 91.0682C393.672 91.8144 393.161 92.3942 392.817 92.7886C392.645 92.9858 392.515 93.1366 392.428 93.2387C392.384 93.2897 392.351 93.3286 392.329 93.3549C392.317 93.3681 392.309 93.3781 392.303 93.385C392.3 93.3885 392.298 93.3913 392.296 93.393C392.295 93.395 392.294 93.3962 393.059 94.0401Z" fill="white" mask="url(#path-1-inside-1_0_46)"/>
</g>
</svg>
