<svg width="1440" height="1096" viewBox="0 0 1440 1096" fill="none" xmlns="http://www.w3.org/2000/svg">
<path d="M85.2045 0C118.273 27.6515 101.739 66.3636 -14 82.9544" stroke="#F1DED0" stroke-opacity="0.29" stroke-width="0.5" stroke-linecap="round"/>
<path d="M217.477 0C278.102 41.4772 316.682 134.386 -14 174.204" stroke="#F1DED0" stroke-opacity="0.29" stroke-width="0.5" stroke-linecap="round"/>
<path d="M548.159 0C520.602 71.8939 372.898 217.341 2.53455 223.977" stroke="#F1DED0" stroke-opacity="0.29" stroke-width="0.5" stroke-linecap="round"/>
<path d="M796.17 0C752.079 77.4242 531.625 243.886 2.53455 290.341" stroke="#F1DED0" stroke-opacity="0.29" stroke-width="0.5" stroke-linecap="round"/>
<path d="M1093.78 0C928.442 94.0151 574.613 282.045 482.022 282.045C389.432 282.045 112.761 442.424 -14 522.613" stroke="#F1DED0" stroke-opacity="0.29" stroke-width="0.5" stroke-linecap="round"/>
<path d="M1424.47 0C597.762 251.629 -718.351 822.908 630.83 1095" stroke="#F1DED0" stroke-opacity="0.29" stroke-width="0.5" stroke-linecap="round"/>
<path d="M-14 978.862C13.5568 1014.81 98.4317 1088.36 217.477 1095" stroke="#F1DED0" stroke-opacity="0.29" stroke-width="0.5" stroke-linecap="round"/>
<path d="M1441 99.5459C746.569 329.053 -228.942 728.341 1424.47 489.432" stroke="#F1DED0" stroke-opacity="0.29" stroke-width="0.5" stroke-linecap="round"/>
<path d="M1424.47 182.501C1033.16 312.463 333.216 613.864 1424.47 423.069" stroke="#F1DED0" stroke-opacity="0.29" stroke-width="0.5" stroke-linecap="round"/>
<path d="M1424.46 547.5C757.59 586.212 -30.5336 763.181 845.772 1095" stroke="#F1DED0" stroke-opacity="0.29" stroke-width="0.5" stroke-linecap="round"/>
<path d="M1441 647.045C1011.11 671.932 200.943 696.818 944.977 1086.7" stroke="#F1DED0" stroke-opacity="0.29" stroke-width="0.5" stroke-linecap="round"/>
<path d="M1424.47 746.591C1104.81 754.887 482.023 705.114 1044.18 1095" stroke="#F1DED0" stroke-opacity="0.29" stroke-width="0.5" stroke-linecap="round"/>
<path d="M1424.47 821.249C1215.03 840.605 779.636 754.885 1159.92 1095" stroke="#F1DED0" stroke-opacity="0.29" stroke-width="0.5" stroke-linecap="round"/>
<path d="M1441 905.937C1300.87 920.942 1038.13 806.905 1265.84 1095" stroke="#F1DED0" stroke-opacity="0.29" stroke-width="0.5" stroke-linecap="round"/>
<path d="M1391.4 1095H1424.47" stroke="#F1DED0" stroke-opacity="0.29" stroke-width="0.5" stroke-linecap="round"/>
</svg>
