<svg width="155" height="4" viewBox="0 0 155 4" fill="none" xmlns="http://www.w3.org/2000/svg">
<g clip-path="url(#clip0_1_1232)">
<path d="M38.3991 0.5H47.2985L37.0807 29.9998H28.1813L38.3991 0.5Z" fill="#E20613"/>
<path d="M51.2749 1.55121H45.5739V1.09286H61.0988V1.55121H55.3979V3.52348H51.2749V1.55121Z" fill="white"/>
<path d="M68.1608 3.55126C66.7186 3.55126 65.4206 3.51075 64.2668 3.42973C63.13 3.34639 62.2393 3.23181 61.5945 3.08597C60.9498 2.94013 60.6274 2.77462 60.6274 2.58943C60.6274 2.40424 60.9498 2.23872 61.5945 2.09289C62.2393 1.94705 63.13 1.83362 64.2668 1.7526C65.4206 1.66926 66.7186 1.6276 68.1608 1.6276C69.603 1.6276 70.8925 1.66926 72.0293 1.7526C73.1661 1.83362 74.0568 1.94705 74.7016 2.09289C75.3463 2.23872 75.6687 2.40424 75.6687 2.58943C75.6687 2.77462 75.3463 2.94013 74.7016 3.08597C74.0568 3.23181 73.1661 3.34639 72.0293 3.42973C70.8925 3.51075 69.603 3.55126 68.1608 3.55126ZM68.1608 3.1068C69.1788 3.1068 70.0102 3.06051 70.6549 2.96791C71.3167 2.873 71.6475 2.74684 71.6475 2.58943C71.6475 2.43202 71.3167 2.30701 70.6549 2.21442C70.0102 2.11951 69.1788 2.07205 68.1608 2.07205C67.1427 2.07205 66.3029 2.11951 65.6412 2.21442C64.9794 2.30701 64.6486 2.43202 64.6486 2.58943C64.6486 2.74684 64.9794 2.873 65.6412 2.96791C66.3029 3.06051 67.1427 3.1068 68.1608 3.1068Z" fill="white"/>
<path d="M84.2016 2.79082L82.2928 3.04778V3.52348H78.3225V0.947021H82.2928V2.4054L88.0956 1.65537H92.8294L87.1285 2.44706L93.3384 3.52348H88.5283L84.2016 2.79082Z" fill="white"/>
<path d="M103.347 1.6276C105.044 1.6276 106.409 1.69704 107.444 1.83594C108.496 1.97483 109.022 2.18085 109.022 2.45401V3.52348H105.052V2.53734C105.052 2.38919 104.815 2.27924 104.339 2.20747C103.864 2.1334 103.177 2.09636 102.278 2.09636C101.277 2.09636 100.479 2.13918 99.8856 2.22484C99.2918 2.30817 98.9948 2.43317 98.9948 2.59985V3.52348H95.0245V1.65537H98.8167V1.87413C99.3427 1.79543 99.9959 1.73524 100.776 1.69357C101.557 1.64959 102.414 1.6276 103.347 1.6276Z" fill="white"/>
<path d="M126.183 2.59637C126.183 2.60332 126.157 2.65193 126.107 2.74221H115.748C115.935 2.85795 116.376 2.94939 117.072 3.01652C117.767 3.08366 118.633 3.11722 119.668 3.11722C120.38 3.11722 121.008 3.10333 121.551 3.07555C122.111 3.04546 122.628 2.99916 123.103 2.93666L125.216 3.24917C123.926 3.45056 122.043 3.55126 119.566 3.55126C118.022 3.55126 116.656 3.51075 115.468 3.42973C114.28 3.34639 113.364 3.23181 112.719 3.08597C112.075 2.94013 111.752 2.77462 111.752 2.58943C111.752 2.40655 112.066 2.2422 112.694 2.09636C113.339 1.94821 114.213 1.83362 115.315 1.7526C116.435 1.66926 117.682 1.6276 119.057 1.6276C120.397 1.6276 121.61 1.66695 122.696 1.74566C123.782 1.82436 124.63 1.93779 125.241 2.08594C125.869 2.23178 126.183 2.40192 126.183 2.59637ZM119.082 2.03733C118.183 2.03733 117.428 2.07205 116.817 2.1415C116.206 2.21095 115.833 2.30586 115.697 2.42623H122.442C122.306 2.30817 121.933 2.21442 121.322 2.14497C120.711 2.07321 119.964 2.03733 119.082 2.03733Z" fill="white"/>
<path d="M132.618 1.90191C133.093 1.81163 133.73 1.74334 134.527 1.69704C135.342 1.65075 136.275 1.6276 137.327 1.6276V2.12761C136.886 2.12298 136.589 2.12067 136.436 2.12067C135.299 2.12067 134.408 2.16465 133.764 2.25261C133.119 2.33826 132.796 2.4679 132.796 2.64151V3.52348H128.826V1.65537H132.618V1.90191Z" fill="white"/>
<path d="M144.344 3.55126C143.207 3.55126 142.096 3.53274 141.01 3.4957C139.924 3.45635 139.058 3.40774 138.414 3.34987L139.737 2.96097C140.348 3.01421 141.086 3.05819 141.951 3.09292C142.817 3.12532 143.665 3.14153 144.496 3.14153C146.176 3.14153 147.016 3.08481 147.016 2.97138C147.016 2.91814 146.787 2.87995 146.329 2.8568C145.871 2.83365 145.167 2.81397 144.216 2.79777C143.097 2.77462 142.172 2.748 141.442 2.7179C140.713 2.68781 140.076 2.63457 139.534 2.55818C139.008 2.48179 138.745 2.37299 138.745 2.23178C138.745 2.11372 138.991 2.00955 139.483 1.91927C139.992 1.82668 140.721 1.75491 141.671 1.70399C142.639 1.65306 143.775 1.6276 145.082 1.6276C146.049 1.6276 147.008 1.64264 147.958 1.67274C148.925 1.70052 149.722 1.73987 150.35 1.7908L149.027 2.17622C147.822 2.08363 146.507 2.03733 145.082 2.03733C144.233 2.03733 143.597 2.05353 143.173 2.08594C142.749 2.11835 142.537 2.16002 142.537 2.21095C142.537 2.26882 142.766 2.30933 143.224 2.33248C143.682 2.35563 144.412 2.37762 145.413 2.39845C146.532 2.42392 147.449 2.45169 148.161 2.48179C148.874 2.50957 149.493 2.56165 150.019 2.63804C150.545 2.71443 150.808 2.82092 150.808 2.95749C150.808 3.07324 150.554 3.17625 150.045 3.26653C149.536 3.35681 148.789 3.42742 147.805 3.47834C146.838 3.52696 145.684 3.55126 144.344 3.55126Z" fill="white"/>
</g>
<defs>
<clipPath id="clip0_1_1232">
<rect width="155" height="3.55124" fill="white"/>
</clipPath>
</defs>
</svg>
