<svg width="46" height="64" viewBox="0 0 46 64" fill="none" xmlns="http://www.w3.org/2000/svg">
<path fill-rule="evenodd" clip-rule="evenodd" d="M40.9528 62.109H45.0542C45.5766 62.109 46 62.5324 46 63.0545C46 63.5766 45.5765 64 45.0542 64H40.007H34.5561H10.8879H5.64882H0.945805C0.423512 64 0 63.5766 0 63.0545C0 62.5324 0.423512 62.109 0.945805 62.109H4.70302V43.9975C4.70302 40.1647 7.31036 36.8779 11.0436 36.0047L15.0526 35.067C16.4324 34.7442 17.396 33.5296 17.396 32.1131V30.909C14.882 29.4816 13.0026 27.0636 12.2935 24.1884H10.8716C9.37339 24.1884 8.1545 22.9699 8.1545 21.4721V18.1326C5.28395 16.3852 3.52489 13.2828 3.52489 9.89297C3.52489 4.57372 7.85378 0.246217 13.1747 0.246217C14.6792 0.246217 16.1701 0.599592 17.506 1.27059C20.4347 -0.111408 23.0192 -0.0021582 23.1607 0.0045918C26.0684 0.154717 28.7878 1.43484 31.2431 3.80922C33.3763 5.87197 34.9545 8.75672 35.9337 12.3833C36.0699 12.8875 35.7714 13.4065 35.2671 13.5426C35.1978 13.5613 35.1286 13.5701 35.0598 13.573C36.2464 13.864 37.1307 14.9336 37.1307 16.2084V21.4721C37.1307 22.6912 36.323 23.7251 35.2145 24.0676C35.1685 26.3554 33.3051 28.2044 31.0111 28.2274C30.2445 29.1982 29.3141 30.0332 28.26 30.6894V32.1131C28.26 33.5296 29.2235 34.7442 30.6032 35.067L34.6124 36.0047C38.3455 36.878 40.9528 40.1647 40.9528 43.9975V55.4905C40.9528 56.0126 40.5293 56.436 40.007 56.436C39.4847 56.436 39.0612 56.0126 39.0612 55.4905V43.9975C39.0612 41.0476 37.0546 38.5181 34.1814 37.846L33.5898 37.7076C32.609 39.3809 31.2725 40.7801 29.6909 41.8211H34.1655C35.8443 41.8211 37.2101 43.1865 37.2101 44.8647V61.3469C37.2101 61.6119 37.17 61.8674 37.0973 62.109H39.0612V59.9449C39.0612 59.4227 39.4847 58.9994 40.007 58.9994C40.5293 58.9994 40.9528 59.4227 40.9528 59.9449V62.109ZM32.9918 24.1882C32.8538 24.7474 32.6732 25.2897 32.4506 25.8105C32.9329 25.4191 33.2572 24.8416 33.3145 24.1882H32.9918ZM35.239 16.2082V21.472C35.239 21.927 34.8686 22.2972 34.4135 22.2972H33.3024V21.6381V15.383H34.4135C34.8686 15.383 35.239 15.7532 35.239 16.2082ZM5.41637 9.89297C5.41637 12.2188 6.44695 14.3763 8.18339 15.8324C8.31981 14.8536 8.97802 14.0412 9.8688 13.686C9.82792 12.6762 9.90907 11.6672 10.1148 10.6762C10.4109 9.2496 10.9528 7.8971 11.726 6.65272L11.7345 6.63885C11.7357 6.63709 11.7365 6.63535 11.7385 6.63247C11.9285 6.31272 12.1284 5.99997 12.3336 5.70322C12.6306 5.27372 13.2198 5.16609 13.6494 5.46297C14.079 5.75984 14.1867 6.34872 13.8897 6.77835C13.8346 6.8581 13.7803 6.9401 13.726 7.02235L17.0541 10.6088C19.8753 12.8602 23.1999 14.0931 26.6522 14.0931C28.0634 14.0931 30.7188 13.6425 31.8375 12.9086C31.8389 12.9077 31.8403 12.907 31.8417 12.9063L31.8442 12.905L31.8459 12.904C31.9933 12.8092 32.1682 12.7536 32.3564 12.7536C32.8076 12.7536 33.1843 13.0696 33.2788 13.4921H34.4133C34.4999 13.4921 34.5851 13.4971 34.6697 13.5051C34.4035 13.3982 34.1878 13.1745 34.1072 12.8762C33.2182 9.58385 31.812 6.99047 29.9278 5.16847C27.8105 3.12109 25.5008 2.01909 23.0629 1.89322C23.0268 1.89097 19.1726 1.74897 15.8924 4.53922C15.4946 4.87759 14.8977 4.82972 14.5592 4.43184C14.2207 4.03422 14.2687 3.43747 14.6666 3.09909C14.9278 2.87684 15.1916 2.67184 15.4565 2.48022C14.7205 2.25459 13.9501 2.13722 13.1746 2.13722C8.89674 2.13722 5.41637 5.61647 5.41637 9.89297ZM11.9826 21.638V22.2972H10.8715C10.4164 22.2972 10.046 21.927 10.046 21.472V17.8539C10.0923 17.687 10.0901 17.5142 10.046 17.3531V16.2081C10.046 15.7531 10.4164 15.3828 10.8715 15.3828H11.9826V21.638ZM12.3715 12.936C12.474 12.861 12.5918 12.8061 12.7198 12.7772C12.8706 12.7052 13.0202 12.6311 13.167 12.5522C13.477 12.3857 14.1702 11.9827 14.9746 11.3243C14.1602 10.5902 13.3909 9.77572 12.6747 8.88547C12.3607 9.58135 12.1233 10.3086 11.9672 11.0605C11.8218 11.7607 11.7489 12.4716 11.7488 13.1848C11.9596 13.1086 12.1669 13.0247 12.3715 12.936ZM13.8742 21.6381V14.4375V14.3152L13.9338 14.2847C13.9769 14.2628 14.0199 14.2408 14.0624 14.218C14.4634 14.0026 15.41 13.4506 16.4646 12.5412C19.488 14.7698 23.001 15.9839 26.6523 15.9839C27.8306 15.9839 29.8242 15.723 31.4107 15.1736V21.638C31.4107 23.3664 30.9057 24.978 30.0384 26.3372H23.6474C23.1251 26.3372 22.7016 26.7606 22.7016 27.2827C22.7016 27.8049 23.1251 28.2282 23.6474 28.2282H28.4143C26.8708 29.5809 24.8515 30.4035 22.6424 30.4035C17.8076 30.4036 13.8742 26.4714 13.8742 21.6381ZM19.2876 32.1131C19.2876 34.4125 17.7233 36.3844 15.4836 36.9082L14.0108 37.2526C15.5289 39.5426 17.8655 41.153 20.5771 41.7402C20.6574 41.7576 20.7324 41.7857 20.8026 41.821H24.8536C24.9238 41.7857 24.9988 41.7576 25.0791 41.7402C27.7907 41.153 30.1272 39.5427 31.6453 37.2526L30.1723 36.9081C27.9326 36.3844 26.3684 34.4124 26.3684 32.113V31.6215C25.2079 32.0557 23.9527 32.2946 22.6425 32.2946C21.4705 32.2946 20.3433 32.1017 19.2876 31.7509V32.1131ZM35.3185 61.3469C35.3185 61.7671 34.9765 62.109 34.5561 62.109H10.8879C10.4675 62.109 10.1255 61.7671 10.1255 61.3469V49.4917C10.1255 48.9696 9.702 48.5462 9.17971 48.5462C8.65741 48.5462 8.2339 48.9696 8.2339 49.4917V61.3469C8.2339 61.6119 8.27404 61.8674 8.34669 62.109H6.59462V43.9975C6.59462 41.0476 8.60127 38.518 11.4746 37.846L12.066 37.7076C13.047 39.3809 14.3834 40.7801 15.9649 41.8211H11.2785C9.59972 41.8211 8.2339 43.1865 8.2339 44.8647V45.9514C8.2339 46.4735 8.65741 46.8969 9.17971 46.8969C9.702 46.8969 10.1255 46.4735 10.1255 45.9514V44.8647C10.1255 44.2291 10.6428 43.7121 11.2785 43.7121H34.1655C34.8013 43.7121 35.3185 44.2292 35.3185 44.8647V61.3469ZM19.8668 17.4887C19.8668 18.0832 19.3847 18.5651 18.7901 18.5651C18.1954 18.5651 17.7133 18.0832 17.7133 17.4887C17.7133 16.8943 18.1954 16.4123 18.7901 16.4123C19.3847 16.4123 19.8668 16.8943 19.8668 17.4887ZM26.1112 18.5651C26.7058 18.5651 27.1879 18.0832 27.1879 17.4887C27.1879 16.8943 26.7058 16.4123 26.1112 16.4123C25.5165 16.4123 25.0344 16.8943 25.0344 17.4887C25.0344 18.0832 25.5165 18.5651 26.1112 18.5651ZM22.7221 49.6667C20.9329 49.6667 19.4772 51.1219 19.4772 52.9106C19.4772 54.6994 20.9327 56.1545 22.7221 56.1545C24.5113 56.1545 25.967 54.6994 25.967 52.9106C25.9669 51.1219 24.5113 49.6667 22.7221 49.6667ZM22.7221 54.2634C21.976 54.2634 21.3688 53.6565 21.3688 52.9105C21.3688 52.1646 21.9758 51.5576 22.7221 51.5576C23.4682 51.5576 24.0754 52.1645 24.0754 52.9105C24.0753 53.6565 23.4682 54.2634 22.7221 54.2634ZM24.4285 22.9282C24.7947 22.5621 25.3886 22.5621 25.7547 22.9282C26.1209 23.2944 26.1209 23.888 25.7547 24.254C24.9327 25.0759 23.8394 25.5286 22.6767 25.5286C21.5139 25.5286 20.4207 25.076 19.5986 24.254C19.2323 23.8879 19.2323 23.2942 19.5986 22.9282C19.9648 22.5621 20.5586 22.562 20.9247 22.9282C21.3926 23.3961 22.0148 23.6536 22.6766 23.6536C23.3383 23.6536 23.9605 23.396 24.4285 22.9282Z" fill="#FF7F57"/>
</svg>
