<svg width="60" height="51" viewBox="0 0 60 51" fill="none" xmlns="http://www.w3.org/2000/svg">
<path fill-rule="evenodd" clip-rule="evenodd" d="M56 25.5H57C58.6569 25.5 60 26.8173 60 28.4423V48.0577C60 49.6827 58.6569 51 57 51H49C47.3431 51 46 49.6827 46 48.0577V39.2308H34V45.1154H37C39.76 45.1186 41.9967 47.3123 42 50.0192C42 50.5609 41.5522 51 41 51H3C1.34312 51 0 49.6827 0 48.0577V22.5577C0 20.9327 1.34312 19.6154 3 19.6154H4V4.90385C4.00325 2.19692 6.24 0.0031875 9 0H51C53.76 0.0031875 55.9967 2.19692 56 4.90385V25.5ZM21 49.0385C21.5522 49.0385 22 48.5993 22 48.0577V47.0769H2V48.0577C2 48.5993 2.44775 49.0385 3 49.0385H21ZM22 45.1154H2V22.5577C2 22.0161 2.44775 21.5769 3 21.5769H21C21.5522 21.5769 22 22.0161 22 22.5577V45.1154ZM39.829 49.0385C39.4036 47.8637 38.271 47.0784 37 47.0769H24V48.0577C23.9966 48.3926 23.9345 48.7244 23.816 49.0385H39.829ZM24 45.1154V39.2308H26V45.1154H24ZM28 39.2308V45.1154H32V39.2308H28ZM46 37.2692H24V31.3846H46V37.2692ZM46 29.4231V28.4423C46 26.8173 47.3431 25.5 49 25.5H54V4.90385C54 3.27883 52.6569 1.96154 51 1.96154H9C7.34312 1.96154 6 3.27883 6 4.90385V19.6154H21C21.4276 19.6166 21.85 19.7086 22.238 19.8851C22.2473 19.8738 22.2545 19.8612 22.2617 19.8487C22.2707 19.833 22.2797 19.8173 22.293 19.8037L32.193 10.0941C32.5806 9.72702 33.195 9.72702 33.5825 10.0941C33.9798 10.4703 33.9907 11.0913 33.607 11.4809L23.707 21.1905C23.6996 21.1983 23.6905 21.203 23.6814 21.2078C23.6733 21.2121 23.6651 21.2164 23.658 21.2229C23.8793 21.6345 23.9966 22.0923 24 22.5577V29.4231H46ZM58 48.0577C58 48.5993 57.5522 49.0385 57 49.0385H49C48.4478 49.0385 48 48.5993 48 48.0577V47.0769H58V48.0577ZM48 45.1154H58V28.4423C58 27.9007 57.5522 27.4615 57 27.4615H49C48.4478 27.4615 48 27.9007 48 28.4423V45.1154ZM11.949 31.5533C11.5585 31.1704 10.9255 31.1704 10.535 31.5533L6.293 35.7137C5.89575 36.0901 5.88475 36.7109 6.2685 37.1005C6.65225 37.4902 7.28525 37.5009 7.6825 37.1246L7.69588 37.1117L7.707 37.1005L11.949 32.9401C12.3533 32.5787 12.3533 32.0369 11.949 31.5533ZM16.535 31.5533C16.9226 31.1863 17.537 31.1863 17.9245 31.5533C18.3218 31.9296 18.3326 32.5505 17.949 32.9401L13.707 37.1005C13.699 37.1086 13.6909 37.1167 13.6825 37.1246C13.2852 37.5009 12.6521 37.4902 12.2685 37.1005C11.8847 36.7109 11.8958 36.09 12.293 35.7137L16.535 31.5533ZM39.6825 10.0951C39.295 9.728 38.6806 9.728 38.293 10.0951L28.393 19.8047C27.9958 20.1809 27.9848 20.8019 28.3684 21.1915C28.752 21.5811 29.3851 21.5919 29.7824 21.2156C29.7908 21.2078 29.7989 21.1997 29.807 21.1915L39.707 11.4819C40.0908 11.0923 40.0798 10.4713 39.6825 10.0951ZM53.707 34.2083C54.0945 33.8411 54.709 33.8411 55.0965 34.2083C55.4937 34.5846 55.5047 35.2054 55.121 35.5951L52.293 38.3687C52.285 38.3768 52.2767 38.3849 52.2685 38.3927C51.8713 38.7691 51.2383 38.7583 50.8545 38.3687C50.4707 37.9791 50.4818 37.3582 50.879 36.9819L53.707 34.2083ZM30.02 33.3462H30.01C29.4578 33.3489 29.0123 33.7902 29.015 34.3318C29.0177 34.8735 29.4678 35.3104 30.02 35.3077C30.5723 35.3077 31.02 34.8686 31.02 34.3269C31.02 33.7853 30.5723 33.3462 30.02 33.3462ZM28 3.92308H32C32.5522 3.92308 33 4.36222 33 4.90385C33 5.44548 32.5522 5.88462 32 5.88462H28C27.4478 5.88462 27 5.44548 27 4.90385C27 4.36222 27.4478 3.92308 28 3.92308Z" fill="#FF7F57"/>
</svg>
