<svg width="42" height="60" viewBox="0 0 42 60" fill="none" xmlns="http://www.w3.org/2000/svg">
<path fill-rule="evenodd" clip-rule="evenodd" d="M41.2196 19.5099C40.8723 20.4355 40.5444 21.3099 40.5444 22.0648C40.5444 22.8195 40.8719 23.6933 41.2186 24.6183L41.2191 24.6195C41.7433 26.0171 42.2853 27.4622 41.827 28.8844C41.3498 30.3659 39.9781 31.2666 38.7677 32.0613L38.7671 32.0617C37.9724 32.5835 37.2218 33.0764 36.8128 33.6427C36.395 34.2213 36.1574 35.1024 35.9058 36.0352C35.5812 37.2394 35.2178 38.5812 34.3321 39.5076L38.7756 55.5682C38.8715 55.915 38.7722 56.2869 38.5167 56.5386C38.2608 56.7902 37.8895 56.8813 37.5478 56.7764L31.4786 54.913L27.2425 59.6723C27.0546 59.8834 26.7885 60 26.514 60C26.4399 60 26.3653 59.9914 26.2913 59.9741C25.9434 59.8921 25.6674 59.6255 25.5714 59.2786L21.3734 44.1075C21.2505 44.1204 21.1263 44.1294 20.9998 44.1294C20.873 44.1294 20.7487 44.1205 20.6255 44.1075L16.4293 59.2786C16.3332 59.6255 16.0574 59.8921 15.7094 59.9741C15.6353 59.9916 15.5605 60 15.4865 60C15.212 60.0001 14.946 59.8835 14.7581 59.6725L10.5205 54.9131L4.45264 56.7766C4.11102 56.8816 3.73939 56.7906 3.48369 56.5389C3.22799 56.2873 3.12881 55.9152 3.22474 55.5683L6.81252 42.6021C6.95764 42.0774 7.49717 41.7709 8.01799 41.917C8.53857 42.0634 8.84287 42.6072 8.69775 43.1319L5.5895 54.3655L10.5471 52.843C10.9112 52.7314 11.3065 52.8424 11.5607 53.1279L15.0232 57.0166L18.7751 43.4534C18.1422 43.0824 17.5597 42.6093 17.0131 42.1641L17.0127 42.1638L17.0126 42.1638L17.0126 42.1637C16.2862 41.5721 15.6003 41.0133 14.9587 40.8034C14.2691 40.5777 13.3568 40.6209 12.3911 40.667L12.3909 40.667C10.8958 40.738 9.34956 40.8114 8.12927 39.9164C6.89636 39.0121 6.46997 37.4309 6.0938 36.0358L6.09325 36.0338C5.84183 35.1018 5.60431 34.2214 5.18683 33.6433C4.77787 33.077 4.02725 32.5841 3.23262 32.0623L3.23195 32.0619C2.02172 31.2672 0.649975 30.3665 0.172534 28.8849C-0.285721 27.4627 0.256255 26.0176 0.78044 24.62C1.12765 23.6943 1.45556 22.82 1.45556 22.065C1.45556 21.3103 1.12779 20.4362 0.780781 19.5107L0.780556 19.5101C0.256371 18.1125 -0.285605 16.6674 0.172651 15.2452C0.649859 13.7636 2.0216 12.8629 3.23195 12.0682L3.23262 12.0678C4.02725 11.546 4.77787 11.0531 5.18683 10.4868C5.60462 9.90822 5.84229 9.02709 6.0938 8.09427L6.09402 8.09347C6.47025 6.69854 6.8966 5.11777 8.12927 4.21372C9.34973 3.31852 10.8961 3.392 12.3912 3.46313L12.3934 3.46323C13.3584 3.50902 14.2699 3.55226 14.9589 3.32673C15.6003 3.11678 16.2862 2.55801 17.0124 1.96649L17.013 1.96606C18.1442 1.04449 19.4265 0 21.0001 0C22.5729 0 23.8547 1.04366 24.9857 1.96449L24.987 1.96559C25.7134 2.55739 26.3996 3.11637 27.0413 3.32637C27.7309 3.55208 28.6431 3.50872 29.6089 3.46278L29.609 3.46277C31.1041 3.39176 32.6503 3.31832 33.8707 4.21337C35.1036 5.11759 35.53 6.6988 35.9062 8.09392L35.9066 8.09533C36.1581 9.02762 36.3956 9.90816 36.8132 10.4864C37.222 11.0527 37.9722 11.5453 38.7665 12.0668L38.7681 12.0679L38.7692 12.0686C39.9792 12.8633 41.3502 13.7638 41.8275 15.2451C42.2857 16.6673 41.7437 18.1124 41.2196 19.5099ZM31.4523 52.843L36.4113 54.3655L32.5797 40.5164C31.6426 40.7618 30.6145 40.7142 29.6089 40.6664L29.6067 40.6663H29.6067C28.6418 40.6205 27.7304 40.5772 27.0412 40.8028C26.3995 41.013 25.7133 41.5719 24.9869 42.1636C24.4401 42.6091 23.8575 43.0822 23.2242 43.4533L26.9774 57.0165L30.4385 53.1279C30.6927 52.8423 31.0882 52.731 31.4523 52.843ZM39.9658 28.2756C39.7021 29.0942 38.7295 29.7329 37.6996 30.409L37.6989 30.4095C36.7907 31.0058 35.8516 31.6225 35.2306 32.4826C34.601 33.3546 34.3042 34.4546 34.0175 35.5184C33.6976 36.7048 33.3954 37.8253 32.7191 38.3214C32.0549 38.8084 30.9117 38.7541 29.701 38.6966L29.6971 38.6964C28.5997 38.6444 27.465 38.5907 26.4367 38.9272C25.4506 39.2499 24.5895 39.9514 23.7566 40.6299C22.7921 41.4156 21.8815 42.1573 20.9999 42.1573C20.1184 42.1573 19.2075 41.4153 18.2432 40.6297L18.2431 40.6296C17.4104 39.9512 16.549 39.2496 15.5631 38.9271C14.9138 38.7146 14.222 38.6577 13.5241 38.6577C13.1155 38.6577 12.7046 38.6771 12.2989 38.6964C11.0884 38.7541 9.94508 38.8084 9.28089 38.3213C8.60461 37.8253 8.3024 36.7047 7.98252 35.5183C7.69578 34.4545 7.39903 33.3543 6.76938 32.4824C6.14834 31.6223 5.20904 31.0055 4.30043 30.4089C3.27055 29.7328 2.29788 29.094 2.03416 28.2754C1.78825 27.5121 2.18803 26.4461 2.61124 25.3176L2.61137 25.3172L2.6114 25.3172C3.00546 24.2665 3.41288 23.1802 3.41288 22.065C3.41288 20.9499 3.00544 19.8633 2.61148 18.8128C2.18811 17.6842 1.78835 16.618 2.03428 15.8546C2.298 15.036 3.27067 14.3973 4.30055 13.7212L4.30122 13.7207C5.20938 13.1244 6.14849 12.5077 6.7695 11.6479C7.39915 10.7759 7.69589 9.67584 7.98264 8.61201C8.30252 7.4256 8.60473 6.30517 9.28101 5.809C9.94508 5.32196 11.0887 5.37622 12.2991 5.43388L12.3008 5.43396C13.3988 5.48608 14.5344 5.53999 15.5634 5.20325C16.5493 4.88056 17.4104 4.17924 18.2432 3.50093L18.2436 3.50063C19.2077 2.71477 20.1187 1.97274 21.0001 1.97274C21.8815 1.97274 22.7925 2.71477 23.7567 3.50016C24.5895 4.17868 25.4509 4.88028 26.4368 5.2029C27.4663 5.53982 28.6023 5.48591 29.701 5.43353L29.7019 5.43348C30.912 5.37608 32.0551 5.32185 32.719 5.80864C33.3953 6.3047 33.6975 7.42525 34.0174 8.61166C34.3041 9.67549 34.6008 10.7756 35.2305 11.6475C35.8515 12.5077 36.7908 13.1244 37.6993 13.7208C38.7292 14.397 39.7019 15.0357 39.9657 15.8543C40.2117 16.6178 39.8119 17.6839 39.3885 18.8126C38.9944 19.8632 38.587 20.9496 38.587 22.0648C38.587 23.1793 38.9941 24.2648 39.3879 25.3149L39.3887 25.317L39.389 25.3176C39.8121 26.4461 40.2118 27.5121 39.9658 28.2756ZM32.5567 15.6119C33.0472 15.3837 33.6288 15.5996 33.8552 16.0941C34.7153 17.9721 35.1514 19.9811 35.1515 22.0649C35.1515 29.9292 28.8032 36.3271 21.0001 36.3271C13.1968 36.3271 6.84845 29.9292 6.84845 22.0649C6.84845 14.2007 13.1968 7.80271 21.0001 7.80271C24.9906 7.80271 28.8161 9.514 31.4955 12.4978C31.8583 12.9018 31.8274 13.5253 31.4267 13.891C31.0256 14.2562 30.4071 14.2252 30.0443 13.8214C27.7354 11.2499 24.4388 9.7751 21.0001 9.7751C14.276 9.7751 8.80566 15.2883 8.80566 22.0648C8.80566 28.8414 14.276 34.3545 21.0001 34.3545C27.724 34.3545 33.1943 28.8414 33.1943 22.0648C33.1943 20.2684 32.8188 18.5377 32.0782 16.9206C31.8518 16.4261 32.066 15.8401 32.5567 15.6119ZM17.2204 15.9311C16.6799 15.9311 16.2418 16.3726 16.2418 16.9173C16.2418 17.462 16.6799 17.9036 17.2204 17.9036H24.7797C25.3202 17.9036 25.7583 17.462 25.7583 16.9173C25.7583 16.3726 25.3202 15.9311 24.7797 15.9311H17.2204ZM16.2418 27.2123C16.2418 26.6676 16.6799 26.226 17.2204 26.226H24.7797C25.3202 26.226 25.7583 26.6676 25.7583 27.2123C25.7583 27.757 25.3202 28.1985 24.7797 28.1985H17.2204C16.6799 28.1985 16.2418 27.757 16.2418 27.2123ZM27.4896 21.0786H24.5418C24.0013 21.0786 23.5632 21.5201 23.5632 22.0648C23.5632 22.6095 24.0013 23.0511 24.5418 23.0511H27.4896C28.03 23.0511 28.4682 22.6096 28.4682 22.0648C28.4682 21.5201 28.03 21.0786 27.4896 21.0786ZM14.5104 21.0786H21.4771C22.0176 21.0786 22.4558 21.5201 22.4558 22.0648C22.4558 22.6095 22.0176 23.0511 21.4771 23.0511H14.5104C13.97 23.0511 13.5318 22.6095 13.5318 22.0648C13.5318 21.5201 13.97 21.0786 14.5104 21.0786Z" fill="#FF7F57"/>
</svg>
