<svg width="20" height="20" viewBox="0 0 20 20" fill="none" xmlns="http://www.w3.org/2000/svg">
<g clip-path="url(#clip0_1_48)">
<path d="M18.4042 3.94396L20 2.4173V2.08313H14.4717L10.5317 11.8898L6.04917 2.08313H0.2525V2.4173L2.11667 4.66146C2.29833 4.8273 2.39333 5.0698 2.36917 5.31396V14.1331C2.42667 14.4506 2.32333 14.7773 2.1 15.0081L0 17.5531V17.8831H5.95417V17.549L3.85417 15.0081C3.62667 14.7765 3.51917 14.4556 3.565 14.1331V6.5048L8.79167 17.8873H9.39917L13.8933 6.5048V15.5723C13.8933 15.8115 13.8933 15.8606 13.7367 16.0173L12.12 17.5815V17.9165H19.9633V17.5823L18.405 16.0565C18.2683 15.9531 18.1975 15.7798 18.2267 15.6115V4.38896C18.1975 4.2198 18.2675 4.04646 18.4042 3.94396Z" fill="white"/>
</g>
<defs>
<clipPath id="clip0_1_48">
<rect width="20" height="20" fill="white"/>
</clipPath>
</defs>
</svg>
