<svg width="20" height="20" viewBox="0 0 20 20" fill="none" xmlns="http://www.w3.org/2000/svg">
<g clip-path="url(#clip0_1_46)">
<path d="M17.7708 7.75687C17.1391 7.75687 16.5833 8.0227 16.1741 8.43687C14.6699 7.3802 12.6416 6.7002 10.3941 6.6277L11.5616 1.28937L15.2791 2.13604C15.2791 3.05937 16.0208 3.81354 16.9308 3.81354C17.8583 3.81354 18.6041 3.03937 18.6041 2.1152C18.6041 1.19104 17.8633 0.41687 16.9316 0.41687C16.2824 0.41687 15.7224 0.81437 15.4433 1.3577L11.3374 0.43437C11.1308 0.378537 10.9283 0.528537 10.8733 0.738537L9.59161 6.62354C7.36161 6.7177 5.35494 7.39687 3.84577 8.45437C3.4366 8.0227 2.85911 7.75687 2.22744 7.75687C-0.115895 7.75687 -0.883395 10.9477 1.26244 12.0385C1.1866 12.376 1.15244 12.736 1.15244 13.0952C1.15244 16.6794 5.13161 19.5835 10.0174 19.5835C14.9241 19.5835 18.9033 16.6794 18.9033 13.0952C18.9033 12.736 18.8658 12.3594 18.7733 12.021C20.8758 10.926 20.1016 7.75854 17.7708 7.75687ZM4.66744 12.2652C4.66744 11.3244 5.40911 10.5669 6.34077 10.5669C7.25077 10.5669 7.99327 11.3194 7.99327 12.2652C7.99327 13.1894 7.25161 13.9427 6.34077 13.9427C5.41327 13.9469 4.66744 13.1894 4.66744 12.2652ZM13.6999 16.2635C12.1658 17.8202 7.83661 17.8202 6.30161 16.2635C6.13244 16.1135 6.13244 15.8485 6.30161 15.6777C6.44911 15.5277 6.71077 15.5277 6.85827 15.6777C8.02994 16.8969 11.9166 16.9177 13.1391 15.6777C13.2866 15.5277 13.5483 15.5277 13.6958 15.6777C13.8683 15.8494 13.8683 16.1144 13.6999 16.2635ZM13.6658 13.946C12.7558 13.946 12.0141 13.1935 12.0141 12.2702C12.0141 11.3294 12.7558 10.5719 13.6658 10.5719C14.5933 10.5719 15.3391 11.3244 15.3391 12.2702C15.3349 13.1894 14.5933 13.946 13.6658 13.946Z" fill="white"/>
</g>
<defs>
<clipPath id="clip0_1_46">
<rect width="20" height="20" fill="white"/>
</clipPath>
</defs>
</svg>
